<svg width="33" height="33" viewBox="0 0 33 33" fill="none" xmlns="http://www.w3.org/2000/svg">
<path d="M30 13.7754H23.4956V4.98267C23.4956 2.63425 25.3994 0.730469 27.7478 0.730469C30.0963 0.730469 32 2.63425 32 4.98268V11.7754C32 12.8799 31.1046 13.7754 30 13.7754Z" fill="#FECB38" stroke="black"/>
<mask id="path-2-inside-1_9565_16773" fill="white">
<path fill-rule="evenodd" clip-rule="evenodd" d="M4.73984 0.34375C2.27109 0.34375 0.269775 2.34507 0.269775 4.81382V27.8733C0.269775 30.3421 2.2711 32.3434 4.73985 32.3434H19.8715C22.3403 32.3434 24.3416 30.3421 24.3416 27.8733V4.66803H24.3421C24.3418 4.65416 24.3417 4.64027 24.3416 4.62637V4.56548C24.358 2.23108 26.2554 0.34375 28.5937 0.34375C28.6178 0.34375 28.6418 0.34395 28.6658 0.344349V0.34375H28.5937H24.3416H24.3415H4.73984Z"/>
</mask>
<path fill-rule="evenodd" clip-rule="evenodd" d="M4.73984 0.34375C2.27109 0.34375 0.269775 2.34507 0.269775 4.81382V27.8733C0.269775 30.3421 2.2711 32.3434 4.73985 32.3434H19.8715C22.3403 32.3434 24.3416 30.3421 24.3416 27.8733V4.66803H24.3421C24.3418 4.65416 24.3417 4.64027 24.3416 4.62637V4.56548C24.358 2.23108 26.2554 0.34375 28.5937 0.34375C28.6178 0.34375 28.6418 0.34395 28.6658 0.344349V0.34375H28.5937H24.3416H24.3415H4.73984Z" fill="white"/>
<path d="M24.3416 4.66803V3.66803H23.3416V4.66803H24.3416ZM24.3421 4.66803V5.66803H25.3589L25.3419 4.65139L24.3421 4.66803ZM24.3416 4.62637H23.3416L23.3416 4.63336L24.3416 4.62637ZM24.3416 4.56548L23.3416 4.55846V4.56548H24.3416ZM28.6658 0.344349L28.6492 1.34421L29.6658 1.36111V0.344349H28.6658ZM28.6658 0.34375H29.6658V-0.65625H28.6658V0.34375ZM1.26978 4.81382C1.26978 2.89735 2.82338 1.34375 4.73984 1.34375V-0.65625C1.71881 -0.65625 -0.730225 1.79278 -0.730225 4.81382H1.26978ZM1.26978 27.8733V4.81382H-0.730225V27.8733H1.26978ZM4.73985 31.3434C2.82338 31.3434 1.26978 29.7898 1.26978 27.8733H-0.730225C-0.730225 30.8944 1.71881 33.3434 4.73985 33.3434V31.3434ZM19.8715 31.3434H4.73985V33.3434H19.8715V31.3434ZM23.3416 27.8733C23.3416 29.7898 21.788 31.3434 19.8715 31.3434V33.3434C22.8925 33.3434 25.3416 30.8944 25.3416 27.8733H23.3416ZM23.3416 4.66803V27.8733H25.3416V4.66803H23.3416ZM24.3421 3.66803H24.3416V5.66803H24.3421V3.66803ZM23.3416 4.63336C23.3417 4.65047 23.3419 4.66757 23.3422 4.68466L25.3419 4.65139C25.3418 4.64074 25.3416 4.63007 25.3416 4.61937L23.3416 4.63336ZM23.3416 4.56548V4.62637H25.3416V4.56548H23.3416ZM25.3416 4.5725C25.3541 2.78724 26.8054 1.34375 28.5937 1.34375V-0.65625C25.7055 -0.65625 23.3618 1.67492 23.3416 4.55846L25.3416 4.5725ZM28.5937 1.34375C28.6122 1.34375 28.6307 1.3439 28.6492 1.34421L28.6824 -0.655513C28.6529 -0.656004 28.6233 -0.65625 28.5937 -0.65625V1.34375ZM29.6658 0.344349V0.34375H27.6658V0.344349H29.6658ZM28.6658 -0.65625H28.5937V1.34375H28.6658V-0.65625ZM28.5937 -0.65625H24.3416V1.34375H28.5937V-0.65625ZM24.3416 -0.65625H24.3415V1.34375H24.3416V-0.65625ZM4.73984 1.34375H24.3415V-0.65625H4.73984V1.34375Z" fill="black" mask="url(#path-2-inside-1_9565_16773)"/>
<rect x="4.66161" y="5.74609" width="14.4233" height="3.32428" rx="0.617517" fill="#FECB38" stroke="black"/>
<rect x="4.16161" y="20.957" width="15.4233" height="0.773908" rx="0.386954" fill="#151513"/>
<rect x="4.16161" y="11.5859" width="15.4233" height="0.773908" rx="0.386954" fill="#151513"/>
<rect x="4.16161" y="23.9844" width="15.4233" height="0.773908" rx="0.386954" fill="#151513"/>
<rect x="4.66161" y="15.1172" width="7.50441" height="3.32428" rx="0.617517" fill="#FECB38" stroke="black"/>
</svg>
