<svg width="54" height="56" viewBox="0 0 54 56" fill="none" xmlns="http://www.w3.org/2000/svg">
    <rect x="1.84619" y="11.2852" width="5.34037" height="11.5439" rx="2.67018" fill="white" stroke="#151513"
        stroke-width="2" />
    <path d="M4.42328 11.3393L4.42328 7.16016M4.42328 23.5781L4.42328 27.1602" stroke="#151513" stroke-width="2"
        stroke-linecap="round" />
    <rect x="11.4233" y="5.52344" width="5.34037" height="11.5439" rx="2.67018" fill="#FECB38" stroke="#151513"
        stroke-width="2" />
    <path d="M14.0004 5.57754L14.0004 1.39844M14.0004 17.8163L14.0004 21.3984" stroke="#151513" stroke-width="2"
        stroke-linecap="round" />
    <path
        d="M35.3156 24.3438H43.3156C44.4201 24.3438 45.3156 25.2392 45.3156 26.3437V52.3437C45.3156 53.4483 44.4201 54.3438 43.3156 54.3438H35.3156M35.3156 24.3438L24.8156 33.8438M35.3156 24.3438V54.3438M24.8156 33.8438H13.3156M24.8156 33.8438V54.3438M13.3156 33.8438L2.84124 45.2703C2.50312 45.6391 2.31555 46.1213 2.31555 46.6217V52.3438C2.31555 53.4483 3.21098 54.3438 4.31555 54.3438H13.3156M13.3156 33.8438V54.3438M35.3156 54.3438H24.8156M24.8156 54.3438H13.3156M1.31555 38.3438L11.7298 27.9295C12.1048 27.5545 12.6135 27.3438 13.144 27.3438H22.9871C23.5176 27.3438 24.0263 27.133 24.4013 26.758L33.7298 17.4295C34.1048 17.0545 34.6135 16.8438 35.144 16.8438H45.3156"
        stroke="#151513" stroke-width="2" stroke-linecap="round" />
    <path
        d="M52.531 19.3438C52.531 26.2398 46.8938 31.8438 39.9233 31.8438C32.9527 31.8438 27.3156 26.2398 27.3156 19.3438C27.3156 12.4477 32.9527 6.84375 39.9233 6.84375C46.8938 6.84375 52.531 12.4477 52.531 19.3438Z"
        fill="#FECB38" stroke="#151513" stroke-width="2" />
    <path
        d="M42.6036 18.693C43.1603 18.2343 43.5821 17.5685 43.8068 16.7937C44.0316 16.0188 44.0474 15.1759 43.8519 14.3892C43.6565 13.6025 43.2601 12.9136 42.7212 12.4241C42.1822 11.9345 41.5293 11.6701 40.8586 11.6699V9.75097C40.8586 9.64918 40.8256 9.55157 40.7669 9.47959C40.7082 9.40762 40.6286 9.36719 40.5456 9.36719C40.4626 9.36719 40.3829 9.40762 40.3242 9.47959C40.2655 9.55157 40.2326 9.64918 40.2326 9.75097V11.6699H38.3546V9.75097C38.3546 9.64918 38.3216 9.55157 38.2629 9.47959C38.2042 9.40762 38.1246 9.36719 38.0415 9.36719C37.9585 9.36719 37.8789 9.40762 37.8202 9.47959C37.7615 9.55157 37.7285 9.64918 37.7285 9.75097V11.6699H34.9115C34.8285 11.6699 34.7489 11.7103 34.6902 11.7823C34.6315 11.8542 34.5985 11.9519 34.5985 12.0536C34.5985 12.1554 34.6315 12.253 34.6902 12.325C34.7489 12.397 34.8285 12.4374 34.9115 12.4374H35.8505V26.2535H34.9115C34.8285 26.2535 34.7489 26.2939 34.6902 26.3659C34.6315 26.4379 34.5985 26.5355 34.5985 26.6373C34.5985 26.739 34.6315 26.8367 34.6902 26.9086C34.7489 26.9806 34.8285 27.021 34.9115 27.021H37.7285V28.9399C37.7285 29.0417 37.7615 29.1393 37.8202 29.2113C37.8789 29.2833 37.9585 29.3237 38.0415 29.3237C38.1246 29.3237 38.2042 29.2833 38.2629 29.2113C38.3216 29.1393 38.3546 29.0417 38.3546 28.9399V27.021H40.2326V28.9399C40.2326 29.0417 40.2655 29.1393 40.3242 29.2113C40.3829 29.2833 40.4626 29.3237 40.5456 29.3237C40.6286 29.3237 40.7082 29.2833 40.7669 29.2113C40.8256 29.1393 40.8586 29.0417 40.8586 28.9399V27.021H41.7976C42.6418 27.0233 43.4572 26.6452 44.0889 25.9586C44.7206 25.272 45.1246 24.3248 45.224 23.2969C45.3235 22.2691 45.1115 21.2323 44.6284 20.3835C44.1453 19.5347 43.4247 18.9331 42.6036 18.693ZM43.3626 15.5077C43.3605 16.3212 43.0961 17.1006 42.6269 17.6758C42.1578 18.2511 41.5221 18.5754 40.8586 18.5779H36.4765V12.4374H40.8586C41.5221 12.44 42.1578 12.7642 42.6269 13.3395C43.0961 13.9147 43.3605 14.6942 43.3626 15.5077ZM41.7976 26.2535H36.4765V19.3454H41.7976C42.5447 19.3454 43.2612 19.7094 43.7895 20.3571C44.3178 21.0049 44.6146 21.8834 44.6146 22.7995C44.6146 23.7155 44.3178 24.5941 43.7895 25.2418C43.2612 25.8896 42.5447 26.2535 41.7976 26.2535Z"
        fill="#151513" stroke="#151513" stroke-width="0.8" />
</svg>