<svg width="45" height="45" viewBox="0 0 45 45" fill="none" xmlns="http://www.w3.org/2000/svg">
    <path
        d="M43.5 10.2384V5.82813C43.5 3.61899 41.7091 1.82812 39.5 1.82812H35.3083M1.53101 10.2384V5.82812C1.53101 3.61898 3.32187 1.82812 5.53101 1.82812H9.72273M1.53101 35.4693V39.9127C1.53101 42.1219 3.32187 43.9127 5.53101 43.9127H9.72273M35.3083 43.9127H39.3031H39.5C41.7091 43.9127 43.5 42.1219 43.5 39.9127V35.4693"
        stroke="#151513" stroke-width="2" stroke-linecap="round" stroke-linejoin="round" />
    <path
        d="M29.599 14.9829C29.599 18.9575 26.559 21.9618 22.4384 21.9618C18.3178 21.9618 15.2777 18.9575 15.2777 14.9829C15.2777 11.0082 18.3178 8.00391 22.4384 8.00391C26.559 8.00391 29.599 11.0082 29.599 14.9829ZM9.44872 36.5215C9.44872 30.8097 14.2095 26.123 20.1068 26.123H24.77C30.6673 26.123 35.428 30.8097 35.428 36.5215C35.428 37.2282 34.8551 37.8012 34.1483 37.8012H10.7284C10.0217 37.8012 9.44872 37.2282 9.44872 36.5215Z"
        fill="#FECB38" stroke="black" stroke-width="2" stroke-linecap="round" stroke-linejoin="round" />
</svg>