<svg width="56" height="42" viewBox="0 0 56 42" fill="none" xmlns="http://www.w3.org/2000/svg">
    <path
        d="M2.27823 5.37109C2.27823 3.16195 4.06909 1.37109 6.27823 1.37109H44.2782C46.4874 1.37109 48.2782 3.16195 48.2782 5.37109V11.3711H2.27823V5.37109Z"
        fill="#FECB38" />
    <path
        d="M3.95961 1.37109H45.1025C45.6924 1.37109 46.296 1.64327 46.7676 2.19346C47.2432 2.74842 47.531 3.52991 47.531 4.37109V9.78281V29.3711C47.531 32.6848 44.8447 35.3711 41.531 35.3711H3.95961C3.36963 35.3711 2.76609 35.0989 2.2945 34.5487C1.81882 33.9938 1.53104 33.2123 1.53104 32.3711V4.37109C1.53104 3.52991 1.81882 2.74841 2.2945 2.19346C2.76609 1.64327 3.36963 1.37109 3.95961 1.37109Z"
        stroke="#151513" stroke-width="2" stroke-linecap="round" />
    <path d="M3.03104 12.3711H46.531" stroke="#151513" stroke-width="2" stroke-linecap="round" />
    <path d="M5.53104 29.8711H15.531" stroke="#151513" stroke-width="2" stroke-linecap="round" />
    <path
        d="M28.9517 27.7634C27.393 27.8026 26.495 26.0067 27.4616 24.7832L31.7442 19.3622C32.5451 18.3484 34.0827 18.3486 34.8833 19.3627L39.1619 24.7822C40.14 26.0212 39.2575 27.8423 37.679 27.8423C37.0863 27.8423 36.5779 28.4757 36.5779 29.2298V38.375C36.5779 39.4795 35.6825 40.375 34.5779 40.375H32.0528C30.9483 40.375 30.0528 39.4795 30.0528 38.375V29.151C30.0528 28.3968 29.5444 27.7634 28.9517 27.7634Z"
        fill="white" stroke="#151513" stroke-width="2" stroke-miterlimit="10" />
    <path
        d="M51.5908 30.9866C53.1496 30.9474 54.0475 32.7433 53.081 33.9668L48.7984 39.3878C47.9975 40.4016 46.4598 40.4014 45.6593 39.3873L41.3807 33.9678C40.4025 32.7288 41.285 30.9077 42.8635 30.9077C43.4562 30.9077 43.9647 30.2743 43.9647 29.5202L43.9647 21.375C43.9647 20.2705 44.8601 19.375 45.9647 19.375L48.4897 19.375C49.5943 19.375 50.4897 20.2705 50.4897 21.375L50.4897 29.599C50.4897 30.3532 50.9981 30.9866 51.5908 30.9866Z"
        fill="white" stroke="#151513" stroke-width="2" stroke-miterlimit="10" />
</svg>